<svg width="170" height="80" viewBox="0 0 170 80" version="1.1" xmlns="http://www.w3.org/2000/svg"><g id="Design" stroke="none" stroke-width="1" fill="none" fill-rule="evenodd"><g id="Desktop-Homepage" transform="translate(-110 -90)" fill="#FFF"><path d="M175.36 156.435a1.054 1.054 0 00-.818-.18l-5.829 1.03-.833-4.73 5.022-.885c.298-.053.534-.203.706-.45a1.05 1.05 0 00.18-.818l-.342-1.947a1.056 1.056 0 00-.45-.706 1.054 1.054 0 00-.817-.18l-5.021.886-.675-3.83 5.68-1.003a1.02 1.02 0 00.677-.443 1.06 1.06 0 00.18-.82l-.376-2.124a1.052 1.052 0 00-.447-.706 1.02 1.02 0 00-.789-.186l-9.356 1.652a1.054 1.054 0 00-.707.449 1.058 1.058 0 00-.18.817l3.359 19.063c.052.3.201.536.448.71.246.17.518.23.818.179l9.505-1.679c.3-.053.536-.202.708-.45.172-.245.232-.519.18-.817l-.375-2.126a1.054 1.054 0 00-.448-.706zm-28.49 5.029a1.053 1.053 0 00-.818-.18l-5.828 1.028-.834-4.728 5.022-.886c.3-.053.535-.202.708-.448.171-.247.231-.52.18-.82l-.344-1.946a1.057 1.057 0 00-.448-.707 1.06 1.06 0 00-.818-.179l-5.022.886-.675-3.83 5.68-1.003a1.02 1.02 0 00.676-.443c.173-.247.233-.52.18-.82l-.374-2.124a1.054 1.054 0 00-.448-.708 1.022 1.022 0 00-.787-.184l-9.357 1.65c-.3.054-.535.203-.707.45-.173.246-.233.52-.18.818l3.357 19.063c.053.3.203.535.449.708.246.172.518.232.818.18l9.506-1.678c.3-.052.535-.202.707-.45.173-.245.233-.519.18-.819l-.374-2.124a1.052 1.052 0 00-.448-.706zm-18.918 2.059l-1.904-10.804a1.27 1.27 0 00-.553-.874c-.303-.204-.654-.271-1.053-.2l-2.092.368 2.366 13.437 2.093-.37c.4-.07.705-.252.92-.547.215-.296.29-.63.223-1.01zm5.003.227a3.61 3.61 0 01-.085 1.619 4.422 4.422 0 01-.738 1.489c-.343.45-.753.837-1.23 1.157a3.91 3.91 0 01-1.524.624l-7.594 1.341a1.12 1.12 0 01-.866-.186 1.118 1.118 0 01-.47-.751l-3.336-18.943a1.116 1.116 0 01.185-.866 1.12 1.12 0 01.75-.471l7.593-1.34a4.445 4.445 0 011.638.018 4.82 4.82 0 011.534.578c.47.277.868.634 1.19 1.07.324.437.533.924.629 1.463l2.324 13.198zm55.229-9.58a1.06 1.06 0 00-.818-.18l-4.993.883-2.783-15.8a1.116 1.116 0 00-.471-.752 1.076 1.076 0 00-.834-.192l-2.511.443c-.32.057-.57.214-.75.472a1.12 1.12 0 00-.186.866l3.336 18.943c.057.319.214.57.471.75.258.181.546.243.866.188l8.61-1.52c.298-.053.533-.204.705-.45a1.05 1.05 0 00.18-.818l-.374-2.125a1.06 1.06 0 00-.448-.707zm-28.719-11.763c-.049-.28-.179-.486-.387-.625a.974.974 0 00-.732-.132l-2.482.438c-.34.06-.613.221-.824.484a1.41 1.41 0 00-.32.89l.128 14.2-4.732-13.387a1.417 1.417 0 00-.607-.727 1.268 1.268 0 00-.909-.178l-2.51.443a.982.982 0 00-.644.376c-.15.2-.2.44-.15.719a.67.67 0 00.066.206l6.566 18.373c.115.308.318.551.606.726.287.174.6.233.94.173l4.992-.881c.319-.056.582-.216.793-.479.21-.263.317-.56.32-.89l-.106-19.512a.695.695 0 00-.008-.217zm120.333-18.293c.173-.246.235-.509.185-.789l-.348-1.975a1.046 1.046 0 00-.447-.707 1.054 1.054 0 00-.82-.18l-10.132 1.79a1.05 1.05 0 00-.707.448c-.172.246-.234.52-.181.818l.347 1.975c.05.28.2.504.446.677.246.174.518.234.817.181l2.69-.475 2.815 15.98c.057.319.213.57.47.75.258.182.536.245.837.192l2.512-.443c.315-.056.567-.213.75-.472a1.12 1.12 0 00.183-.866l-2.815-15.98 2.69-.474c.303-.053.537-.203.708-.45zm-14.732-.963a1.112 1.112 0 00-.866-.186l-2.482.438a1.115 1.115 0 00-.749.472 1.111 1.111 0 00-.185.866l1.854 10.533-6.338-9.742a5.014 5.014 0 00-.555-.704c-.204-.212-.503-.282-.902-.212l-2.87.507c-.3.053-.54.209-.72.466-.181.259-.24.547-.185.867l3.337 18.942c.056.32.21.57.469.75.257.181.537.245.836.192l2.511-.443a1.12 1.12 0 00.75-.471 1.12 1.12 0 00.185-.867l-1.817-10.325 6.243 9.544c.192.275.39.513.602.712.21.2.492.267.853.204l2.9-.512a1.12 1.12 0 00.75-.471c.18-.259.243-.548.186-.867l-3.336-18.942a1.119 1.119 0 00-.471-.75zm-30.584 5.398a1.116 1.116 0 00-.865-.186l-4.245.749c-.318.056-.55.205-.692.446-.143.241-.224.538-.244.892l-.296 11.099-4.069-10.329a1.781 1.781 0 00-.5-.745c-.219-.188-.497-.251-.837-.192l-4.243.75c-.3.053-.54.208-.72.466a1.112 1.112 0 00-.187.866l3.337 18.942c.056.32.215.57.473.751.258.18.54.243.841.19l2.258-.397c.3-.053.541-.21.723-.468a1.11 1.11 0 00.19-.867l-2.055-11.671 4.438 11.251c.115.308.287.557.514.742.228.186.499.251.817.195l1.4-.246c.32-.057.552-.212.703-.464.15-.253.216-.542.2-.869l.326-12.092 2.056 11.671c.057.32.213.57.472.75.257.182.547.243.865.188l2.212-.39a1.12 1.12 0 00.75-.473c.18-.257.243-.547.186-.866l-3.337-18.942a1.115 1.115 0 00-.47-.751zm-22.51 12.897l-.693-3.932a1.137 1.137 0 00-.488-.758 1.182 1.182 0 00-.914-.193l-2.21.391 1.106 6.284 2.213-.39c.339-.06.601-.223.791-.493.189-.268.253-.572.194-.909zm5.016.312a3.83 3.83 0 01-.044 1.581 4.288 4.288 0 01-.616 1.405c-.285.42-.65.773-1.093 1.058a3.968 3.968 0 01-1.472.567l-4.304.76 1.06 6.016c.056.318-.008.608-.188.866a1.11 1.11 0 01-.75.47l-2.48.439a1.115 1.115 0 01-.866-.186 1.12 1.12 0 01-.47-.75l-3.337-18.943c-.057-.32.005-.608.186-.867a1.12 1.12 0 01.75-.47l7.622-1.347a4.157 4.157 0 011.626.037c.545.12 1.043.325 1.494.615a4.41 4.41 0 011.164 1.091c.324.436.532.925.628 1.463l1.09 6.195zm-19.074 9.472l-1.918-10.886a1.928 1.928 0 00-.744-1.243 1.657 1.657 0 00-1.353-.334 1.659 1.659 0 00-1.157.777c-.274.43-.364.904-.274 1.423l1.918 10.886c.092.52.339.935.744 1.245.403.311.854.42 1.352.333a1.66 1.66 0 001.158-.776 1.94 1.94 0 00.274-1.425zm4.738-.925c.169.958.143 1.837-.076 2.637a5.278 5.278 0 01-1.096 2.091 6.299 6.299 0 01-1.882 1.474 8.332 8.332 0 01-2.43.813 8.309 8.309 0 01-2.563.068 5.992 5.992 0 01-2.26-.758 5.582 5.582 0 01-1.729-1.592c-.478-.668-.8-1.479-.969-2.438l-1.902-10.803c-.17-.957-.144-1.83.077-2.62.22-.79.582-1.482 1.084-2.075a6.132 6.132 0 011.868-1.47 8.335 8.335 0 012.43-.815 8.329 8.329 0 012.561-.067c.832.111 1.59.357 2.273.74a5.322 5.322 0 011.741 1.576c.477.667.802 1.478.97 2.435l1.903 10.804zm49.086-7.352a1.051 1.051 0 00-.818-.18l-5.83 1.03-.832-4.73 5.022-.885c.3-.053.533-.203.706-.45.173-.245.234-.52.182-.818l-.343-1.946a1.062 1.062 0 00-.45-.707 1.052 1.052 0 00-.817-.18l-5.022.887-.674-3.83 5.68-1.004a1.01 1.01 0 00.674-.442c.173-.247.235-.52.183-.82l-.375-2.125a1.053 1.053 0 00-.45-.706 1.016 1.016 0 00-.785-.186l-9.358 1.652c-.3.053-.535.202-.708.45a1.06 1.06 0 00-.18.817l3.359 19.062c.053.3.202.536.448.709.246.172.518.232.817.18l9.507-1.679a1.05 1.05 0 00.707-.448c.172-.247.233-.52.181-.819l-.374-2.126a1.058 1.058 0 00-.45-.706zm-22.855-31.331c-.126-.717-.277-1.312-.455-1.784a4.06 4.06 0 00-.69-1.22 4.193 4.193 0 00-1.066-.89 13.67 13.67 0 00-1.602-.795l-4.193-1.787c-.62-.26-1.081-.492-1.384-.696-.303-.203-.495-.534-.576-.992l-.131-.747c-.102-.578-.021-1.044.247-1.4.264-.354.646-.576 1.143-.663.437-.078.859.007 1.262.255.402.247.66.689.772 1.327l.132.747c.053.298.208.54.464.72.259.18.538.243.836.191l2.507-.443c.318-.056.568-.213.749-.47a1.08 1.08 0 00.191-.835l-.131-.749c-.168-.955-.483-1.768-.939-2.437a5.163 5.163 0 00-1.679-1.584 5.98 5.98 0 00-2.24-.745 8.53 8.53 0 00-2.618.077c-2.13.376-3.637 1.198-4.523 2.465-.883 1.268-1.145 2.93-.784 4.985.173.978.49 1.852.956 2.625.464.772 1.183 1.36 2.157 1.763l4.69 1.981a9.47 9.47 0 011.405.725c.36.235.58.581.66 1.04l.174.988c.089.5.016.934-.216 1.305-.233.37-.658.609-1.275.717-.477.085-.918-.026-1.321-.335a1.928 1.928 0 01-.742-1.241l-.222-1.255a1.136 1.136 0 00-.455-.753 1.062 1.062 0 00-.848-.188l-2.48.437a1.117 1.117 0 00-.747.471c-.18.258-.242.546-.186.866l.21 1.195c.19 1.076.519 1.95.986 2.622a4.895 4.895 0 001.704 1.551c.67.36 1.41.577 2.223.647a9.73 9.73 0 002.533-.126c2.19-.387 3.752-1.18 4.69-2.384.938-1.202 1.209-2.93.812-5.181zm-14.748 2.603c-.126-.717-.277-1.312-.452-1.785a4.094 4.094 0 00-.693-1.218 4.15 4.15 0 00-1.065-.89c-.423-.254-.958-.52-1.602-.795l-4.193-1.789c-.62-.26-1.082-.49-1.384-.694-.303-.203-.496-.535-.576-.993l-.131-.747c-.103-.578-.02-1.045.246-1.399.264-.355.647-.577 1.145-.665.438-.077.858.008 1.262.255.401.248.66.69.771 1.327l.132.748c.053.298.207.54.465.72.258.18.537.243.834.19l2.508-.442c.318-.056.569-.213.748-.47.18-.258.244-.538.193-.836l-.133-.747c-.167-.957-.482-1.769-.937-2.438a5.19 5.19 0 00-1.68-1.585 5.985 5.985 0 00-2.24-.744 8.517 8.517 0 00-2.618.077c-2.13.377-3.636 1.197-4.523 2.465-.884 1.268-1.146 2.93-.784 4.984.173.978.49 1.855.955 2.626.464.772 1.184 1.36 2.158 1.763l4.69 1.981c.576.248 1.046.49 1.405.725.36.235.58.582.66 1.04l.174.989c.088.5.016.934-.216 1.303-.233.37-.658.61-1.274.719-.478.084-.919-.028-1.321-.337a1.921 1.921 0 01-.743-1.24l-.22-1.255a1.148 1.148 0 00-.456-.752 1.065 1.065 0 00-.848-.189l-2.478.438c-.32.056-.569.212-.75.47-.18.259-.243.547-.186.865l.21 1.196c.19 1.076.518 1.95.987 2.622a4.877 4.877 0 001.704 1.551 5.66 5.66 0 002.221.647c.814.07 1.658.029 2.533-.126 2.19-.386 3.754-1.181 4.692-2.384.936-1.202 1.208-2.93.81-5.18zm-13.772 7.269l-.374-2.122a1.043 1.043 0 00-.448-.706 1.053 1.053 0 00-.816-.18l-5.821 1.028-.832-4.722 5.015-.885c.299-.053.533-.203.706-.449a1.06 1.06 0 00.18-.817l-.343-1.943a1.052 1.052 0 00-.448-.706 1.05 1.05 0 00-.817-.18l-5.015.885-.674-3.825 5.673-1.002c.278-.05.504-.197.676-.442.171-.247.232-.519.179-.819l-.374-2.122a1.056 1.056 0 00-.448-.706 1.016 1.016 0 00-.786-.184l-9.345 1.65a1.05 1.05 0 00-.706.448 1.052 1.052 0 00-.18.816l3.354 19.038c.053.298.202.534.448.707.245.172.518.232.817.18l9.493-1.676c.3-.053.535-.203.706-.448.173-.246.234-.52.18-.818zm-13.583 2.397l-.375-2.122a1.053 1.053 0 00-.447-.706 1.052 1.052 0 00-.816-.18l-4.986.88-2.78-15.78a1.119 1.119 0 00-.47-.749 1.079 1.079 0 00-.834-.192l-2.508.443a1.113 1.113 0 00-.748.471c-.18.258-.242.547-.186.865l3.332 18.918c.056.319.213.569.47.75.258.18.545.242.865.185l8.599-1.517c.296-.053.532-.202.704-.448.172-.246.233-.519.18-.818zm-15.634-14.836l-.347-1.973a1.056 1.056 0 00-.448-.706 1.053 1.053 0 00-.817-.18l-10.121 1.787a1.054 1.054 0 00-.706.448 1.058 1.058 0 00-.18.817l.348 1.972c.049.28.196.505.443.677.246.173.518.233.817.18l2.687-.474 2.81 15.959c.057.318.212.57.471.75.257.18.535.244.834.191l2.507-.443c.32-.056.568-.212.75-.47.179-.258.24-.547.185-.866l-2.81-15.958 2.686-.475c.3-.052.534-.202.706-.45.173-.245.234-.507.185-.786zM160.1 123.762c-.127-.717-.278-1.311-.454-1.785a4.056 4.056 0 00-.692-1.217 4.189 4.189 0 00-1.064-.89c-.425-.254-.958-.52-1.602-.796l-4.194-1.787c-.62-.261-1.082-.492-1.384-.696-.303-.204-.495-.534-.576-.993l-.131-.747c-.102-.578-.02-1.045.246-1.398.265-.356.647-.577 1.145-.666.437-.077.858.009 1.261.256.402.248.66.69.773 1.327l.131.747c.052.299.208.54.465.72.257.18.536.244.834.192l2.509-.444a1.11 1.11 0 00.748-.47c.18-.258.244-.538.192-.835l-.132-.748c-.169-.956-.482-1.768-.938-2.438a5.171 5.171 0 00-1.68-1.584 5.967 5.967 0 00-2.24-.744 8.511 8.511 0 00-2.618.077c-2.13.376-3.637 1.197-4.522 2.464-.884 1.269-1.146 2.93-.784 4.985.172.978.49 1.853.954 2.626.464.771 1.185 1.359 2.159 1.763l4.689 1.98c.577.249 1.046.49 1.405.725.36.235.579.582.66 1.042l.175.986c.088.5.015.935-.217 1.306-.233.37-.658.608-1.273.717-.48.084-.92-.027-1.323-.336a1.924 1.924 0 01-.742-1.24l-.22-1.256a1.143 1.143 0 00-.457-.752 1.061 1.061 0 00-.849-.188l-2.477.437a1.116 1.116 0 00-.749.47c-.18.26-.242.547-.186.866l.21 1.195c.19 1.077.519 1.95.986 2.623a4.874 4.874 0 001.705 1.55c.669.361 1.41.576 2.223.648a9.76 9.76 0 002.532-.126c2.19-.387 3.753-1.182 4.69-2.385.938-1.201 1.208-2.93.812-5.18zm-13.773 7.269l-.372-2.122a1.054 1.054 0 00-.448-.706 1.054 1.054 0 00-.818-.18l-5.82 1.028-.832-4.722 5.014-.885c.3-.053.535-.202.706-.448.173-.247.232-.519.18-.818l-.342-1.943a1.055 1.055 0 00-.448-.707 1.054 1.054 0 00-.817-.179l-5.015.886-.674-3.827 5.673-1c.278-.05.503-.198.675-.443.173-.246.232-.52.18-.818l-.374-2.122a1.052 1.052 0 00-.447-.706 1.02 1.02 0 00-.787-.185l-9.344 1.65c-.3.052-.535.202-.707.448a1.055 1.055 0 00-.179.817l3.353 19.037c.053.3.202.535.448.707.246.173.518.232.817.18l9.493-1.676c.3-.053.534-.202.707-.449.172-.245.232-.518.178-.817zm-14.042 2.418l-.984-5.59c-.193-1.094-.604-1.967-1.231-2.617-.624-.628-1.51-.883-2.66-.763 1.034-.306 1.702-.834 2-1.585.311-.795.369-1.75.171-2.866l-.473-2.69a3.837 3.837 0 00-.582-1.469 3.826 3.826 0 00-1.084-1.087 4.05 4.05 0 00-1.473-.587 4.81 4.81 0 00-1.754.001l-7.314 1.292a1.117 1.117 0 00-.75.47 1.114 1.114 0 00-.184.866l3.331 18.917c.056.32.213.57.47.75.26.18.546.242.864.186l2.48-.438a1.11 1.11 0 00.747-.47c.179-.257.243-.547.187-.866l-1.328-7.531 2.449-.432c.656-.116 1.055.225 1.195 1.022l1.116 6.336c.057.318.21.57.456.752.248.182.53.244.849.188l2.597-.458a1.08 1.08 0 00.719-.465c.18-.258.243-.548.186-.866zm104.111-11.692L115.593 143.08 110 111.323 230.802 90l5.594 31.757zm-111.144-.102a1.18 1.18 0 01-.195.914 1.169 1.169 0 01-.789.493l-2.239.396-.832-4.723 2.239-.396c.338-.06.642.006.91.194.27.19.434.443.49.762l.416 2.36z" id="logo"/></g></g></svg>